<?xml version="1.0" encoding="UTF-8"?>
<svg id="Layer_1" xmlns="http://www.w3.org/2000/svg" version="1.1" viewBox="0 0 597 475.99">
  <!-- Generator: Adobe Illustrator 30.0.0, SVG Export Plug-In . SVG Version: 2.1.1 Build 123)  -->
  <defs>
    <style>
      .st0 {
        fill: #231f20;
      }
    </style>
  </defs>
  <path class="st0" d="M58.3,154.84h100.76l19.95,46.62h39.43L127.5,0h-36.84L0,201.46h38.28l20.02-46.62ZM108.77,37.31l37.73,88.17h-75.59l37.87-88.17Z"/>
  <path class="st0" d="M281.47,142.75h45.47c2.68,0,5.3-.07,7.87-.2l41.06,58.91h40.29l-46.3-66.08c1.01-.41,2.01-.83,2.99-1.27,12.76-5.76,22.59-13.91,29.5-24.46,6.91-10.55,10.36-23.21,10.36-37.99,0-22.25-7.63-39.76-22.88-52.52-15.25-12.76-36.31-19.14-63.17-19.14h-82.6v201.46h37.41v-58.71ZM362.48,42.16c8.35,7.01,12.52,16.84,12.52,29.5s-4.17,22.55-12.52,29.64c-8.35,7.1-20.77,10.65-37.27,10.65h-43.75V31.66h43.75c16.5,0,28.92,3.5,37.27,10.5Z"/>
  <polygon class="st0" points="492.42 201.46 529.84 201.46 529.84 31.66 596.6 31.66 596.6 0 425.65 0 425.65 31.66 492.42 31.66 492.42 201.46"/>
  <rect class="st0" x="3.01" y="230.08" width="45.03" height="242.45"/>
  <polygon class="st0" points="203.33 416.7 122.84 230.08 74.01 230.08 179.99 472.53 224.32 472.53 329.96 230.08 285.28 230.08 203.33 416.7"/>
  <path class="st0" d="M587.3,301.43c-6.47-15.24-15.53-28.46-27.19-39.66-11.66-11.2-25.46-19.86-41.39-25.98-15.93-6.12-33.25-9.18-51.95-9.18s-36.37,3.12-52.3,9.35c-15.93,6.23-29.79,14.95-41.56,26.15-11.78,11.2-20.9,24.36-27.36,39.48-6.47,15.13-9.7,31.69-9.7,49.7s3.23,34.23,9.7,49.35c6.46,15.13,15.59,28.35,27.36,39.66,11.78,11.32,25.68,20.09,41.74,26.32,16.05,6.23,33.42,9.35,52.13,9.35s36.02-3.06,51.95-9.18c15.93-6.12,29.73-14.83,41.39-26.15,11.66-11.31,20.72-24.53,27.19-39.66,6.46-15.12,9.7-31.69,9.7-49.7s-3.24-34.64-9.7-49.88ZM545.22,385.59c-4.28,10.39-10.22,19.4-17.84,27.02-7.62,7.62-16.57,13.51-26.84,17.66-10.28,4.16-21.53,6.23-33.77,6.23s-23.61-2.08-34.12-6.23c-10.51-4.16-19.57-10.1-27.19-17.84-7.62-7.73-13.63-16.8-18.01-27.19-4.39-10.39-6.58-21.7-6.58-33.94s2.19-23.84,6.58-34.12c4.38-10.27,10.39-19.28,18.01-27.02,7.62-7.73,16.68-13.68,27.19-17.84,10.5-4.16,21.87-6.23,34.12-6.23s23.49,2.08,33.77,6.23c10.27,4.16,19.28,10.04,27.02,17.66,7.73,7.62,13.68,16.62,17.84,27.02s6.23,21.82,6.23,34.29-2.14,23.9-6.41,34.29Z"/>
</svg>